<svg xmlns="http://www.w3.org/2000/svg" viewBox="0 0 64 64">
  <rect width="64" height="64" rx="14" fill="#1b3024"/>
  <path d="M50 18l8-3M51 25l8 2" stroke="#e7c86b" stroke-width="3.5" stroke-linecap="round"/>
  <circle cx="31" cy="23" r="13" fill="#eef3c4" stroke="#0e1a14" stroke-width="3"/>
  <rect x="30" y="18.5" width="18" height="9" rx="2" fill="#0e1a14"/>
  <path d="M6 53c-3-10 3-18 12-18 2-7 13-9 17-3 7-3 16 2 15 10 6 2 9 8 6 13-1 2-3 3-5 3H11c-3 0-5-2-5-5z" fill="#5e9461" stroke="#0e1a14" stroke-width="3" stroke-linejoin="round"/>
  <ellipse cx="19" cy="44" rx="5.5" ry="2.8" fill="#b5d67c" transform="rotate(-25 19 44)"/>
  <ellipse cx="39" cy="42" rx="5.5" ry="2.8" fill="#b5d67c" transform="rotate(20 39 42)"/>
  <ellipse cx="29" cy="53" rx="5" ry="2.6" fill="#b5d67c" transform="rotate(-10 29 53)"/>
</svg>
